<svg width="153" height="42" viewBox="0 0 153 42" fill="none" xmlns="http://www.w3.org/2000/svg">
<path d="M0.951904 40.9998V0.999763H9.40893V34.0271H26.5574V40.9998H0.951904ZM67.3581 20.9998C67.3581 25.3617 66.5313 29.0727 64.8777 32.1326C63.237 35.1925 60.9975 37.5297 58.1589 39.1443C55.3334 40.7458 52.1563 41.5466 48.6277 41.5466C45.073 41.5466 41.8829 40.7393 39.0574 39.1248C36.2318 37.5102 33.9988 35.1729 32.3581 32.113C30.7175 29.0531 29.8972 25.3487 29.8972 20.9998C29.8972 16.6378 30.7175 12.9268 32.3581 9.86695C33.9988 6.80705 36.2318 4.47632 39.0574 2.87476C41.8829 1.26018 45.073 0.452888 48.6277 0.452888C52.1563 0.452888 55.3334 1.26018 58.1589 2.87476C60.9975 4.47632 63.237 6.80705 64.8777 9.86695C66.5313 12.9268 67.3581 16.6378 67.3581 20.9998ZM58.7839 20.9998C58.7839 18.1742 58.3607 15.7914 57.5144 13.8513C56.6811 11.9112 55.5027 10.4399 53.9792 9.43726C52.4558 8.43466 50.6719 7.93336 48.6277 7.93336C46.5834 7.93336 44.7996 8.43466 43.2761 9.43726C41.7527 10.4399 40.5678 11.9112 39.7214 13.8513C38.8881 15.7914 38.4714 18.1742 38.4714 20.9998C38.4714 23.8253 38.8881 26.2081 39.7214 28.1482C40.5678 30.0883 41.7527 31.5597 43.2761 32.5623C44.7996 33.5649 46.5834 34.0662 48.6277 34.0662C50.6719 34.0662 52.4558 33.5649 53.9792 32.5623C55.5027 31.5597 56.6811 30.0883 57.5144 28.1482C58.3607 26.2081 58.7839 23.8253 58.7839 20.9998ZM100.146 13.9294C99.8728 12.9789 99.4887 12.1391 98.9939 11.4099C98.4991 10.6677 97.8936 10.0427 97.1775 9.53492C96.4743 9.01409 95.6671 8.61695 94.7556 8.34351C93.8572 8.07008 92.8611 7.93336 91.7673 7.93336C89.723 7.93336 87.9262 8.44117 86.3767 9.45679C84.8402 10.4724 83.6423 11.9503 82.7829 13.8904C81.9236 15.8175 81.4939 18.1742 81.4939 20.9607C81.4939 23.7472 81.9171 26.1169 82.7634 28.0701C83.6098 30.0232 84.8077 31.5141 86.3572 32.5427C87.9066 33.5584 89.7361 34.0662 91.8454 34.0662C93.7595 34.0662 95.3936 33.7276 96.7478 33.0505C98.115 32.3604 99.1566 31.3904 99.8728 30.1404C100.602 28.8904 100.967 27.4125 100.967 25.7068L102.685 25.9607H92.3728V19.5935H109.111V24.6326C109.111 28.1482 108.369 31.169 106.884 33.6951C105.4 36.2081 103.356 38.1482 100.752 39.5154C98.1475 40.8695 95.1658 41.5466 91.8064 41.5466C88.0564 41.5466 84.7621 40.7198 81.9236 39.0662C79.085 37.3995 76.8715 35.0362 75.2829 31.9763C73.7074 28.9034 72.9197 25.2576 72.9197 21.0388C72.9197 17.7966 73.3884 14.906 74.3259 12.3669C75.2764 9.81487 76.6046 7.65341 78.3103 5.88258C80.016 4.11174 82.0017 2.76408 84.2673 1.83961C86.5329 0.915127 88.9874 0.452888 91.6306 0.452888C93.8962 0.452888 96.0056 0.784919 97.9587 1.44898C99.9118 2.10002 101.644 3.0245 103.154 4.22242C104.677 5.42033 105.921 6.84612 106.884 8.49976C107.848 10.1404 108.467 11.9503 108.74 13.9294H100.146ZM152.221 20.9998C152.221 25.3617 151.395 29.0727 149.741 32.1326C148.1 35.1925 145.861 37.5297 143.022 39.1443C140.197 40.7458 137.02 41.5466 133.491 41.5466C129.936 41.5466 126.746 40.7393 123.921 39.1248C121.095 37.5102 118.862 35.1729 117.221 32.113C115.581 29.0531 114.76 25.3487 114.76 20.9998C114.76 16.6378 115.581 12.9268 117.221 9.86695C118.862 6.80705 121.095 4.47632 123.921 2.87476C126.746 1.26018 129.936 0.452888 133.491 0.452888C137.02 0.452888 140.197 1.26018 143.022 2.87476C145.861 4.47632 148.1 6.80705 149.741 9.86695C151.395 12.9268 152.221 16.6378 152.221 20.9998ZM143.647 20.9998C143.647 18.1742 143.224 15.7914 142.378 13.8513C141.544 11.9112 140.366 10.4399 138.843 9.43726C137.319 8.43466 135.535 7.93336 133.491 7.93336C131.447 7.93336 129.663 8.43466 128.139 9.43726C126.616 10.4399 125.431 11.9112 124.585 13.8513C123.751 15.7914 123.335 18.1742 123.335 20.9998C123.335 23.8253 123.751 26.2081 124.585 28.1482C125.431 30.0883 126.616 31.5597 128.139 32.5623C129.663 33.5649 131.447 34.0662 133.491 34.0662C135.535 34.0662 137.319 33.5649 138.843 32.5623C140.366 31.5597 141.544 30.0883 142.378 28.1482C143.224 26.2081 143.647 23.8253 143.647 20.9998Z" fill="#FDE374"/>
</svg>
